<svg width="80" height="80" viewBox="0 0 80 80" fill="none" xmlns="http://www.w3.org/2000/svg">
<g clip-path="url(#clip0_7511_34829)">
<path d="M60.8 0H19.2C8.59613 0 0 8.59613 0 19.2V60.8C0 71.4039 8.59613 80 19.2 80H60.8C71.4039 80 80 71.4039 80 60.8V19.2C80 8.59613 71.4039 0 60.8 0Z" fill="url(#paint0_linear_7511_34829)"/>
<path d="M53.0151 34.2403L24.6216 51.436C22.95 52.4433 20.8008 51.2441 20.8008 49.2775V30.0912C20.8008 21.7211 29.8036 16.4928 37.0393 20.6658L52.9912 29.8753C54.639 30.8586 54.6629 33.257 53.0151 34.2403Z" fill="white"/>
<path d="M54.4423 48.2966L35.1235 59.4968C31.6608 61.4873 27.7444 61.0796 24.9027 59.0651C23.5177 58.1056 23.6847 55.9712 25.1415 55.1078L55.4931 36.8327C56.9259 35.9693 58.8125 36.7847 59.0751 38.4396C59.6722 42.157 58.1437 46.1621 54.4423 48.2966Z" fill="white" fill-opacity="0.6"/>
</g>
<defs>
<linearGradient id="paint0_linear_7511_34829" x1="5.96046e-07" y1="40" x2="80" y2="40" gradientUnits="userSpaceOnUse">
<stop stop-color="#299235"/>
<stop offset="1" stop-color="#206628"/>
</linearGradient>
<clipPath id="clip0_7511_34829">
<rect width="80" height="80" fill="white"/>
</clipPath>
</defs>
</svg>
