<svg width="48" height="48" viewBox="0 0 48 48" fill="none" xmlns="http://www.w3.org/2000/svg">
    <rect width="48" height="48" rx="12" fill="#102E32"/>
    <path d="M17.3415 18.8899C17.5212 19.0113 17.8812 19.8139 18.036 20.0509C18.4725 20.719 19.0526 21.2987 19.69 21.7903C21.6186 23.278 25.7671 24.3333 26.8593 26.2334C27.2466 26.9072 27.2724 27.765 27.0518 28.496C26.7842 29.3825 26.055 30.074 25.2365 30.5105C25.2358 30.9108 25.2521 31.3094 25.3103 31.7061C25.6037 33.7061 27.1017 34.8143 28.6669 35.9539C26.5933 35.9768 24.517 35.9548 22.4432 35.9543C21.4177 35.9515 20.3705 35.9232 19.3483 36C21.0648 34.734 22.4095 33.496 22.82 31.374C22.3816 31.5428 21.9319 31.6758 21.4708 31.7731C21.0097 31.8702 20.5436 31.9301 20.0723 31.9529C18.1518 32.0471 16.2566 31.4478 14.8228 30.1925C13.8587 29.3485 13.2674 28.2277 13.2066 26.9642C13.061 23.9396 15.3367 21.0145 17.3415 18.8899Z" fill="#01FF80"/>
    <path d="M23.9197 12L24.037 12.0081C24.4302 12.3079 24.7708 12.7333 25.1084 13.0909L27.028 15.1273C27.9982 16.1616 28.9739 17.191 29.9551 18.2155C30.9503 19.2514 31.9723 20.2494 32.7925 21.4268C33.6686 22.6849 34.405 24.0416 34.6887 25.5456C34.9353 26.8537 34.7997 28.2005 34.0003 29.3146C32.9255 30.8126 31.1211 31.6058 29.3151 31.9185L28.3204 32.0384C29.3477 31.1143 30.1801 30.1466 30.5975 28.8298C32.6912 22.2237 23.4428 22.1513 21.229 18.0989C20.7516 17.225 20.6896 16.2686 20.9911 15.3295C21.442 13.9253 22.5834 12.6808 23.9197 12Z" fill="#01FF80"/>
</svg>